<?xml version="1.0" encoding="utf-8"?>
<!-- Generator: Adobe Illustrator 17.0.0, SVG Export Plug-In . SVG Version: 6.00 Build 0)  -->
<!DOCTYPE svg PUBLIC "-//W3C//DTD SVG 1.1//EN" "http://www.w3.org/Graphics/SVG/1.1/DTD/svg11.dtd">
<svg version="1.1" id="Layer_1" xmlns="http://www.w3.org/2000/svg" xmlns:xlink="http://www.w3.org/1999/xlink" x="0px" y="0px"
	 width="90px" height="35px" viewBox="0 0 100 39" enable-background="new 0 0 100 39" xml:space="preserve">
<g>
	<path fill="#252525" d="M28.314,24.588c-0.289-0.167-0.604-0.334-0.942-0.502c-0.338-0.167-0.698-0.325-1.078-0.475
		c-0.381-0.149-0.788-0.277-1.223-0.385c-0.435-0.108-0.899-0.185-1.395-0.233c-0.471-0.036-0.893-0.024-1.268,0.036
		c-0.375,0.06-0.703,0.151-0.988,0.271c-0.284,0.121-0.529,0.256-0.734,0.407c-0.205,0.151-0.374,0.292-0.507,0.424l-1.196,6.707
		c0.085,0.145,0.199,0.308,0.344,0.488c0.145,0.181,0.335,0.356,0.571,0.525c0.235,0.169,0.522,0.316,0.861,0.443
		c0.338,0.126,0.743,0.208,1.214,0.244c0.508,0.048,0.991,0.054,1.45,0.018c0.459-0.036,0.903-0.093,1.332-0.172
		c0.429-0.079,0.833-0.169,1.214-0.272c0.38-0.103,0.74-0.208,1.078-0.317l-0.435,2.444c-0.688,0.277-1.443,0.477-2.265,0.597
		c-0.821,0.12-1.745,0.132-2.772,0.036c-0.81-0.072-1.537-0.232-2.184-0.48c-0.646-0.247-1.19-0.558-1.63-0.932
		c-0.441-0.375-0.761-0.8-0.96-1.277c-0.198-0.477-0.256-0.975-0.171-1.494l1.213-6.845c0.097-0.519,0.323-0.99,0.679-1.413
		c0.357-0.423,0.812-0.779,1.368-1.068c0.556-0.29,1.19-0.498,1.903-0.625c0.713-0.127,1.474-0.154,2.283-0.082
		c1.038,0.097,1.935,0.269,2.691,0.516c0.755,0.248,1.416,0.565,1.984,0.951L28.314,24.588z"/>
	<path fill="#252525" d="M37.425,34.583c-0.688,0.121-1.395,0.217-2.12,0.29c-0.725,0.072-1.432,0.078-2.12,0.018
		c-0.483-0.048-1.011-0.136-1.586-0.262c-0.573-0.127-1.096-0.311-1.567-0.553c-0.471-0.241-0.845-0.544-1.123-0.906
		c-0.278-0.362-0.374-0.803-0.29-1.322l0.163-0.906c0.084-0.471,0.284-0.836,0.598-1.096c0.314-0.26,0.679-0.462,1.097-0.607
		c0.416-0.145,0.851-0.244,1.304-0.299c0.453-0.054,0.861-0.106,1.223-0.154l3.135-0.453l0.054-0.29
		c-0.205-0.254-0.477-0.465-0.815-0.634c-0.338-0.169-0.767-0.278-1.286-0.326c-0.592-0.06-1.221-0.045-1.885,0.046
		c-0.664,0.091-1.305,0.203-1.921,0.337l0.417-2.39c0.314-0.096,0.646-0.172,0.996-0.226c0.35-0.054,0.695-0.091,1.033-0.109
		c0.338-0.018,0.658-0.027,0.96-0.027c0.314,0,0.586,0.011,0.815,0.034c0.398,0.036,0.854,0.124,1.368,0.263
		c0.514,0.139,0.985,0.344,1.413,0.616c0.429,0.272,0.77,0.612,1.024,1.023c0.253,0.411,0.332,0.906,0.236,1.485L37.425,34.583z
		 M33.112,31.109c-0.338,0.037-0.676,0.073-1.015,0.109c-0.338,0.036-0.676,0.096-1.014,0.181l-0.072,0.454
		c0.181,0.193,0.468,0.344,0.861,0.453c0.392,0.109,0.963,0.193,1.712,0.253c0.242,0.024,0.517,0.027,0.825,0.009
		c0.307-0.018,0.637-0.039,0.987-0.064l0.308-1.739L33.112,31.109z"/>
	<path fill="#252525" d="M54.581,34.788h-2.392l1.196-6.781c-0.194-0.253-0.414-0.461-0.662-0.624
		c-0.247-0.162-0.619-0.268-1.114-0.316c-0.508-0.036-0.909,0.003-1.205,0.117c-0.296,0.114-0.583,0.274-0.86,0.479l-1.231,7.124
		h-2.411l1.214-6.781c-0.193-0.253-0.417-0.461-0.671-0.624c-0.253-0.162-0.628-0.268-1.123-0.316
		c-0.495-0.036-0.891,0.003-1.187,0.117c-0.295,0.114-0.583,0.274-0.86,0.479l-1.25,7.124h-2.391l1.286-7.248
		c0.096-0.532,0.317-0.985,0.661-1.359c0.344-0.374,0.749-0.677,1.214-0.906c0.465-0.23,0.96-0.386,1.486-0.471
		c0.525-0.084,1.012-0.109,1.459-0.072c0.459,0.036,0.918,0.139,1.377,0.308c0.459,0.169,0.87,0.398,1.232,0.688
		c0.253-0.205,0.535-0.377,0.842-0.517c0.308-0.138,0.625-0.247,0.951-0.326c0.326-0.078,0.65-0.13,0.97-0.154
		c0.32-0.024,0.625-0.024,0.915,0c0.447,0.036,0.909,0.142,1.386,0.317c0.477,0.176,0.903,0.413,1.277,0.716
		c0.375,0.302,0.664,0.665,0.87,1.087c0.205,0.423,0.259,0.9,0.163,1.432L54.581,34.788z"/>
	<path fill="#252525" d="M66.589,32.299c-0.097,0.568-0.332,1.03-0.707,1.386c-0.374,0.356-0.807,0.631-1.296,0.824
		c-0.489,0.194-0.997,0.317-1.522,0.372c-0.525,0.054-0.993,0.063-1.404,0.027c-0.351-0.024-0.734-0.085-1.151-0.181
		c-0.417-0.097-0.812-0.23-1.186-0.399l-0.616,3.479c-0.06,0.326-0.227,0.592-0.499,0.797c-0.271,0.205-0.571,0.296-0.897,0.272
		c-0.327-0.024-0.583-0.163-0.77-0.416c-0.188-0.254-0.251-0.538-0.19-0.852l1.83-10.292c0.097-0.568,0.342-1.03,0.734-1.386
		c0.393-0.357,0.846-0.631,1.359-0.824c0.513-0.193,1.042-0.314,1.586-0.362c0.543-0.048,1.015-0.054,1.413-0.018
		c0.399,0.036,0.854,0.127,1.368,0.272c0.514,0.145,0.985,0.353,1.414,0.625c0.429,0.272,0.77,0.613,1.023,1.024
		c0.254,0.41,0.332,0.9,0.236,1.467L66.589,32.299z M64.959,28.025c-0.206-0.241-0.477-0.45-0.816-0.625
		c-0.338-0.176-0.767-0.287-1.286-0.335c-0.507-0.049-0.957-0.015-1.35,0.1c-0.392,0.115-0.728,0.275-1.006,0.48l-0.688,3.95
		c0.205,0.242,0.501,0.453,0.888,0.634c0.386,0.181,0.846,0.296,1.377,0.344c0.507,0.048,0.927,0.015,1.259-0.099
		c0.333-0.115,0.637-0.275,0.915-0.481l0.688-3.968H64.959z"/>
	<path fill="#252525" d="M88.87,28.064c-0.314-0.157-0.604-0.29-0.87-0.398c-0.266-0.109-0.526-0.206-0.779-0.29
		c-0.253-0.084-0.51-0.151-0.77-0.199c-0.26-0.048-0.541-0.085-0.843-0.109c-0.506-0.048-0.957-0.018-1.349,0.09
		c-0.393,0.109-0.728,0.266-1.006,0.471l-0.09,0.615l3.225,0.797c0.229,0.06,0.486,0.148,0.77,0.263
		c0.284,0.114,0.544,0.265,0.779,0.452c0.236,0.187,0.42,0.422,0.553,0.706c0.133,0.284,0.163,0.619,0.091,1.005l-0.163,0.851
		c-0.096,0.567-0.341,1.029-0.734,1.385c-0.393,0.356-0.843,0.631-1.35,0.823c-0.507,0.194-1.033,0.314-1.576,0.362
		c-0.543,0.048-1.02,0.054-1.431,0.018c-0.459-0.048-0.969-0.139-1.531-0.271c-0.562-0.133-1.144-0.356-1.748-0.67l0.435-2.391
		c0.314,0.145,0.607,0.275,0.878,0.39c0.271,0.115,0.534,0.212,0.788,0.29c0.253,0.079,0.507,0.145,0.761,0.199
		c0.253,0.054,0.532,0.094,0.834,0.118c0.507,0.048,0.957,0.015,1.35-0.099c0.392-0.115,0.728-0.275,1.006-0.48l0.109-0.616
		l-3.225-0.797c-0.23-0.06-0.486-0.148-0.77-0.263c-0.284-0.114-0.544-0.265-0.779-0.452c-0.236-0.187-0.42-0.422-0.553-0.707
		c-0.133-0.284-0.163-0.618-0.09-1.005l0.145-0.833c0.096-0.58,0.338-1.045,0.725-1.394c0.386-0.35,0.836-0.622,1.35-0.815
		c0.514-0.193,1.043-0.314,1.585-0.362c0.543-0.049,1.021-0.055,1.432-0.018c0.459,0.048,0.969,0.139,1.531,0.271
		c0.561,0.133,1.139,0.356,1.73,0.67L88.87,28.064z"/>
	<path fill="#252525" d="M1.74,9.005c0.045-0.245,0.17-0.444,0.373-0.598c0.204-0.154,0.424-0.222,0.659-0.204
		c0.253,0.018,0.451,0.122,0.591,0.313c0.14,0.19,0.188,0.403,0.142,0.639l-1.698,9.674H0L1.74,9.005z"/>
	<path fill="#252525" d="M10.607,18.831H8.813l0.897-5.078c-0.145-0.181-0.344-0.337-0.598-0.469
		c-0.254-0.131-0.575-0.215-0.965-0.251c-0.381-0.036-0.718-0.011-1.012,0.074c-0.295,0.087-0.546,0.206-0.754,0.36L5.43,18.831
		H3.636l1.006-5.609c0.072-0.426,0.256-0.772,0.55-1.039c0.295-0.267,0.632-0.471,1.013-0.611c0.38-0.141,0.774-0.229,1.183-0.265
		c0.407-0.036,0.765-0.04,1.073-0.014C8.758,11.32,9.1,11.387,9.485,11.49c0.385,0.105,0.738,0.258,1.06,0.462
		c0.322,0.204,0.578,0.46,0.768,0.767c0.19,0.308,0.249,0.675,0.176,1.101L10.607,18.831z"/>
	<path fill="#252525" d="M18.533,9.878c-0.204,0.155-0.423,0.223-0.659,0.205c-0.39-0.037-0.731-0.011-1.026,0.075
		c-0.294,0.086-0.546,0.206-0.754,0.36l-0.149,0.871h1.684c0.244,0,0.44,0.098,0.585,0.292c0.145,0.194,0.194,0.414,0.149,0.659
		c-0.045,0.235-0.17,0.43-0.373,0.584c-0.204,0.154-0.428,0.231-0.673,0.231h-1.685l-1.562,8.75h-1.793l1.563-8.75h-0.897
		l0.312-1.766h0.897l0.19-1.116c0.073-0.427,0.256-0.774,0.551-1.041c0.294-0.268,0.634-0.472,1.019-0.613
		c0.385-0.141,0.784-0.231,1.196-0.272c0.412-0.041,0.768-0.048,1.067-0.021c0.244,0.027,0.439,0.132,0.584,0.313
		c0.145,0.182,0.194,0.396,0.15,0.64C18.862,9.524,18.737,9.723,18.533,9.878z"/>
	<path fill="#252525" d="M20.387,18.831h-1.793l1.195-6.753c0.045-0.245,0.168-0.444,0.368-0.598
		c0.198-0.154,0.42-0.222,0.665-0.204c0.244,0.018,0.439,0.12,0.584,0.306c0.145,0.185,0.194,0.4,0.149,0.645L20.387,18.831z
		 M21.938,10.206c-0.217,0.217-0.48,0.326-0.788,0.326c-0.308,0-0.569-0.109-0.782-0.326c-0.213-0.217-0.318-0.48-0.318-0.788
		c0-0.308,0.105-0.569,0.318-0.782c0.213-0.213,0.474-0.319,0.782-0.319c0.308,0,0.571,0.107,0.788,0.319
		c0.218,0.213,0.326,0.474,0.326,0.782C22.264,9.725,22.155,9.988,21.938,10.206z"/>
	<path fill="#252525" d="M29.354,18.831h-1.793l0.897-5.078c-0.145-0.181-0.344-0.337-0.598-0.469
		c-0.253-0.131-0.575-0.215-0.965-0.251c-0.379-0.036-0.718-0.011-1.012,0.074c-0.294,0.087-0.546,0.206-0.754,0.36l-0.951,5.364
		h-1.793l1.006-5.609c0.072-0.426,0.256-0.772,0.549-1.039c0.295-0.267,0.632-0.471,1.013-0.611c0.38-0.141,0.774-0.229,1.181-0.265
		c0.408-0.036,0.765-0.04,1.073-0.014c0.299,0.027,0.642,0.093,1.026,0.197c0.385,0.105,0.738,0.258,1.06,0.462
		c0.321,0.204,0.577,0.46,0.768,0.767c0.19,0.308,0.249,0.675,0.177,1.101L29.354,18.831z"/>
	<path fill="#252525" d="M33.104,18.831H31.31l1.196-6.753c0.045-0.245,0.167-0.444,0.367-0.598
		c0.199-0.154,0.422-0.222,0.666-0.204c0.244,0.018,0.439,0.12,0.584,0.306c0.145,0.185,0.194,0.4,0.15,0.645L33.104,18.831z
		 M34.654,10.206c-0.217,0.217-0.48,0.326-0.788,0.326c-0.308,0-0.569-0.109-0.781-0.326c-0.213-0.217-0.32-0.48-0.32-0.788
		c0-0.308,0.106-0.569,0.32-0.782c0.213-0.213,0.473-0.319,0.781-0.319c0.308,0,0.571,0.107,0.788,0.319
		c0.218,0.213,0.327,0.474,0.327,0.782C34.981,9.725,34.872,9.988,34.654,10.206z"/>
	<path fill="#252525" d="M40.984,13.154h-2.595l-0.557,3.205c0.145,0.19,0.346,0.35,0.604,0.482
		c0.258,0.131,0.577,0.215,0.958,0.251c0.244,0.018,0.439,0.12,0.584,0.306c0.145,0.186,0.195,0.401,0.149,0.645
		c-0.045,0.244-0.17,0.442-0.374,0.592c-0.204,0.149-0.423,0.215-0.659,0.197c-0.308-0.027-0.652-0.095-1.032-0.204
		c-0.381-0.109-0.734-0.265-1.06-0.469c-0.326-0.203-0.584-0.459-0.774-0.768c-0.191-0.307-0.249-0.674-0.177-1.099l0.557-3.138
		c-0.235-0.009-0.428-0.106-0.577-0.292c-0.149-0.186-0.201-0.4-0.156-0.645c0.045-0.235,0.163-0.432,0.354-0.59
		c0.19-0.158,0.417-0.238,0.679-0.238l0.38-2.092c0.045-0.236,0.167-0.433,0.367-0.591c0.2-0.159,0.421-0.229,0.666-0.21
		c0.244,0.018,0.44,0.122,0.584,0.312c0.145,0.191,0.195,0.403,0.15,0.639l-0.353,1.943h2.595L40.984,13.154z"/>
	<path fill="#252525" d="M48.755,15.993h-5.176l-0.082,0.448c0.145,0.181,0.344,0.338,0.598,0.469
		c0.253,0.131,0.575,0.215,0.964,0.251c0.507,0.045,0.915,0.043,1.223-0.007c0.308-0.05,0.571-0.097,0.788-0.143
		c0.308-0.073,0.548-0.038,0.72,0.102c0.172,0.141,0.272,0.318,0.299,0.53c0.027,0.213-0.02,0.426-0.143,0.639
		c-0.122,0.213-0.319,0.356-0.591,0.428c-0.417,0.109-0.822,0.179-1.216,0.211c-0.394,0.031-0.858,0.025-1.393-0.021
		c-0.299-0.027-0.641-0.093-1.026-0.197c-0.385-0.104-0.739-0.258-1.06-0.462c-0.321-0.204-0.577-0.46-0.767-0.768
		c-0.191-0.308-0.249-0.675-0.177-1.1l0.557-3.152c0.073-0.425,0.256-0.772,0.55-1.039c0.294-0.267,0.634-0.471,1.019-0.611
		c0.385-0.141,0.781-0.229,1.189-0.265c0.408-0.037,0.761-0.042,1.06-0.014c0.299,0.027,0.641,0.093,1.026,0.197
		c0.386,0.104,0.739,0.258,1.06,0.462c0.321,0.204,0.577,0.46,0.768,0.768c0.19,0.308,0.249,0.679,0.177,1.114L48.755,15.993z
		 M47.356,13.765c-0.154-0.19-0.357-0.351-0.611-0.482c-0.254-0.131-0.575-0.215-0.965-0.251c-0.38-0.036-0.718-0.011-1.013,0.075
		c-0.294,0.086-0.545,0.206-0.754,0.36l-0.136,0.761h3.383l0.081-0.462H47.356z"/>
	<circle fill-rule="evenodd" clip-rule="evenodd" fill="#252525" cx="76.486" cy="13.866" r="0.754"/>
	<circle fill-rule="evenodd" clip-rule="evenodd" fill="#252525" cx="53.466" cy="15.626" r="0.755"/>
	<circle fill-rule="evenodd" clip-rule="evenodd" fill="#252525" cx="53.633" cy="17.822" r="0.58"/>
	<circle fill-rule="evenodd" clip-rule="evenodd" fill="#252525" cx="99.379" cy="9.74" r="0.58"/>
	<circle fill-rule="evenodd" clip-rule="evenodd" fill="#252525" cx="99.245" cy="11.831" r="0.755"/>
	<circle fill-rule="evenodd" clip-rule="evenodd" fill="#252525" cx="54.925" cy="13.68" r="0.967"/>
	<circle fill-rule="evenodd" clip-rule="evenodd" fill="#252525" cx="98.005" cy="13.943" r="0.966"/>
	<circle fill-rule="evenodd" clip-rule="evenodd" fill="#252525" cx="92.812" cy="16.292" r="1.195"/>
	<circle fill-rule="evenodd" clip-rule="evenodd" fill="#252525" cx="60.174" cy="11.559" r="1.195"/>
	<circle fill-rule="evenodd" clip-rule="evenodd" fill="#252525" cx="57.239" cy="12.178" r="1.103"/>
	<circle fill-rule="evenodd" clip-rule="evenodd" fill="#252525" cx="95.703" cy="15.478" r="1.103"/>
	<circle fill-rule="evenodd" clip-rule="evenodd" fill="#252525" cx="98.727" cy="7.626" r="0.755"/>
	<circle fill-rule="evenodd" clip-rule="evenodd" fill="#252525" cx="99.323" cy="9.747" r="0.58"/>
	<circle fill-rule="evenodd" clip-rule="evenodd" fill="#252525" cx="53.578" cy="17.83" r="0.58"/>
	<circle fill-rule="evenodd" clip-rule="evenodd" fill="#252525" cx="54.42" cy="19.749" r="0.755"/>
	<circle fill-rule="evenodd" clip-rule="evenodd" fill="#252525" cx="78.372" cy="12.488" r="0.839"/>
	<circle fill-rule="evenodd" clip-rule="evenodd" fill="#252525" cx="74.691" cy="15.297" r="0.837"/>
	<circle fill-rule="evenodd" clip-rule="evenodd" fill="#252525" cx="72.655" cy="16.79" r="0.966"/>
	<circle fill-rule="evenodd" clip-rule="evenodd" fill="#252525" cx="80.377" cy="10.946" r="0.966"/>
	<circle fill-rule="evenodd" clip-rule="evenodd" fill="#252525" cx="96.69" cy="6.298" r="0.967"/>
	<circle fill-rule="evenodd" clip-rule="evenodd" fill="#252525" cx="56.309" cy="21.308" r="0.967"/>
	<circle fill-rule="evenodd" clip-rule="evenodd" fill="#252525" cx="82.702" cy="9.404" r="1.103"/>
	<circle fill-rule="evenodd" clip-rule="evenodd" fill="#252525" cx="85.238" cy="7.981" r="1.104"/>
	<circle fill-rule="evenodd" clip-rule="evenodd" fill="#252525" cx="61.992" cy="21.735" r="1.195"/>
	<circle fill-rule="evenodd" clip-rule="evenodd" fill="#252525" cx="91.032" cy="6.105" r="1.195"/>
	<circle fill-rule="evenodd" clip-rule="evenodd" fill="#252525" cx="94.001" cy="5.68" r="1.104"/>
	<circle fill-rule="evenodd" clip-rule="evenodd" fill="#252525" cx="70.33" cy="18.284" r="1.104"/>
	<circle fill-rule="evenodd" clip-rule="evenodd" fill="#252525" cx="67.767" cy="19.681" r="1.103"/>
	<circle fill-rule="evenodd" clip-rule="evenodd" fill="#252525" cx="58.998" cy="21.962" r="1.104"/>
	<path fill="#252525" d="M78.635,26.272c-0.629,0.11-1.255,0.17-1.875,0.185l-0.97,5.554c-0.278,0.206-0.613,0.363-1.006,0.471
		c-0.392,0.108-0.843,0.139-1.35,0.09c-0.52-0.048-0.948-0.16-1.287-0.335c-0.338-0.175-0.604-0.384-0.797-0.626l1.032-5.832
		c-0.719-0.247-1.412-0.558-2.07-0.928h-0.157l-1.178,6.668c-0.097,0.568-0.019,1.057,0.235,1.468
		c0.254,0.41,0.595,0.752,1.024,1.024c0.429,0.272,0.9,0.48,1.413,0.625c0.514,0.145,0.97,0.235,1.368,0.272
		c0.41,0.036,0.888,0.03,1.431-0.018c0.543-0.048,1.069-0.169,1.576-0.362c0.508-0.193,0.957-0.468,1.349-0.824
		c0.393-0.356,0.637-0.818,0.735-1.386l1.106-6.161C79.025,26.198,78.831,26.237,78.635,26.272z"/>
	<path fill-rule="evenodd" clip-rule="evenodd" fill="#252525" d="M62.211,11.765c0.217,0.394,0.623,0.617,1.042,0.619
		c0.196,0.001,0.421-0.01,0.579-0.148c0.336-0.293,0.154-2.025-0.068-2.129c-0.333-0.155-0.734-0.156-1.08,0.035
		C62.105,10.461,61.893,11.187,62.211,11.765z"/>
	<path fill="#252525" d="M64.108,16.039c-1.19-6.848,3.396-13.363,10.247-14.553c6.386-1.109,12.481,2.808,14.238,8.897
		C87.11,3.592,80.527-0.885,73.613,0.315C66.508,1.55,61.752,8.307,62.985,15.408c0.884,5.091,4.604,8.976,9.254,10.317
		C68.13,24.239,64.91,20.654,64.108,16.039z"/>
	<circle fill-rule="evenodd" clip-rule="evenodd" fill="#252525" cx="64.975" cy="20.82" r="1.194"/>
	<circle fill-rule="evenodd" clip-rule="evenodd" fill="#252525" cx="88.008" cy="6.815" r="1.195"/>
	<path fill-rule="evenodd" clip-rule="evenodd" fill="#252525" d="M90.743,15.879c-0.318-0.578-1.044-0.79-1.622-0.473
		c-0.042,0.023-0.081,0.048-0.118,0.075c-0.063,0.556-0.162,1.103-0.296,1.638c0.341,0.508,1.018,0.682,1.563,0.382
		C90.849,17.184,91.06,16.458,90.743,15.879z"/>
</g>
</svg>
